<svg version="1.1" xmlns="http://www.w3.org/2000/svg" xmlns:xlink="http://www.w3.org/1999/xlink" x="0px" y="0px"
	 viewBox="0 0 1080 301.8" style="enable-background:new 0 0 1080 301.8;" xml:space="preserve">
<style type="text/css">
	.st0{fill:#231D91;}
	.st1{fill:#FFFFFF;}
	.st2{clip-path:url(#SVGID_00000047046772980351443990000008347010906323654842_);fill:none;stroke:#231D91;stroke-miterlimit:10;}
	.st3{clip-path:url(#SVGID_00000078006997981526346050000010099828769648913847_);fill:none;stroke:#231D91;stroke-miterlimit:10;}
</style>
	<g id="BACKGROUND">
</g>
	<g id="OBJECTS">
	<g>
		<path class="st0" d="M233.3,265H81.6c-21.1,0-38.2-17.1-38.2-38.2V75c0-21.1,17.1-38.2,38.2-38.2h151.7
			c21.1,0,38.2,17.1,38.2,38.2v151.7C271.6,247.9,254.4,265,233.3,265z"/>
		<g>
			<path class="st0" d="M319,217.6c-11.6-8.3-17.8-20.6-18.8-36.7h49.6c0.7,8.5,4.5,12.8,11.4,12.8c2.5,0,4.7-0.6,6.4-1.8
				c1.8-1.2,2.6-3,2.6-5.6c0-3.5-1.9-6.3-5.7-8.5c-3.8-2.2-9.7-4.7-17.7-7.5c-9.5-3.4-17.4-6.7-23.6-9.9
				c-6.2-3.2-11.6-7.9-16.1-14.1c-4.5-6.2-6.7-14.1-6.5-23.8c0-9.7,2.5-17.9,7.5-24.7c5-6.8,11.8-11.9,20.4-15.4
				c8.6-3.5,18.3-5.3,29.1-5.3c18.2,0,32.7,4.2,43.4,12.6s16.4,20.3,16.9,35.5h-50.2c-0.1-4.2-1.2-7.2-3.2-9c-2-1.8-4.3-2.7-7.1-2.7
				c-2,0-3.6,0.7-4.8,2c-1.3,1.3-1.9,3.2-1.9,5.6c0,3.4,1.9,6.1,5.6,8.3c3.7,2.2,9.6,4.8,17.8,7.9c9.4,3.5,17.1,6.9,23.2,10.1
				c6.1,3.2,11.4,7.7,15.9,13.5c4.5,5.7,6.7,13,6.7,21.6c0,9.1-2.2,17.3-6.7,24.5c-4.5,7.2-11,12.9-19.6,16.9
				c-8.5,4.1-18.7,6.1-30.5,6.1C345.3,230.1,330.6,226,319,217.6z"/>
			<path class="st0" d="M512.1,228.7l-29.2-47.3v47.3h-46.7V73.1h46.7v81.4l29.6-44.4h54.2l-44.4,59.7l45.4,58.9H512.1z"/>
			<path class="st0" d="M582.3,94.1c-4.9-4.3-7.4-9.8-7.4-16.4c0-6.7,2.4-12.3,7.4-16.7c4.9-4.4,11.4-6.6,19.5-6.6
				c8,0,14.4,2.2,19.3,6.6c4.9,4.4,7.4,10,7.4,16.7c0,6.6-2.5,12.1-7.4,16.4c-4.9,4.3-11.4,6.5-19.3,6.5
				C593.8,100.7,587.2,98.5,582.3,94.1z M625,110.1v118.6h-46.7V110.1H625z"/>
			<path class="st0" d="M692.7,73.1v155.6H646V73.1H692.7z"/>
			<path class="st0" d="M760.4,73.1v155.6h-46.7V73.1H760.4z"/>
			<path class="st0" d="M895.5,177.6h-75c0.7,10.2,5,15.3,12.8,15.3c5,0,8.7-2.3,10.9-6.9h49.4c-1.7,8.4-5.2,15.9-10.6,22.6
				c-5.4,6.7-12.2,11.9-20.4,15.8c-8.2,3.9-17.2,5.8-27,5.8c-11.8,0-22.3-2.4-31.4-7.4c-9.2-4.9-16.3-11.9-21.4-21.1
				c-5.1-9.2-7.7-19.9-7.7-32.3s2.6-23.1,7.7-32.3c5.1-9.2,12.3-16.2,21.4-21.1s19.7-7.4,31.4-7.4c11.8,0,22.2,2.4,31.4,7.3
				c9.2,4.8,16.3,11.7,21.4,20.7c5.1,9,7.7,19.6,7.7,31.7C896.2,171.6,896,174.6,895.5,177.6z M848.9,157.2c0-3.9-1.3-6.9-3.8-8.9
				c-2.5-2-5.7-3-9.5-3c-8.3,0-13.1,4-14.5,12H848.9z"/>
			<path class="st0" d="M984.5,228.7l-20-26.7l-14.9,26.7h-51.3l39.7-62.4l-41.8-56.1h52.1l20,26.9l15.1-26.9h51.3l-41,61l42.9,57.6
				H984.5z"/>
		</g>
		<g>
			<g>
				<path class="st1" d="M161.6,172.5h-40l-37.8-41.1l37.8-41.1h40l-38,41.1L161.6,172.5z"/>
			</g>
			<g>
				<path class="st1" d="M153,129.3h40l37.8,41.1L193,211.5h-40l38-41.1L153,129.3z"/>
			</g>
			<g>
				<defs>
					<path id="SVGID_1_" d="M161.6,172.5h-40l-37.8-41.1l37.8-41.1h40l-38,41.1L161.6,172.5z"/>
				</defs>
				<clipPath id="SVGID_00000066488173572978171880000005504411782889960349_">
					<use xlink:href="#SVGID_1_"  style="overflow:visible;"/>
				</clipPath>

				<polyline style="clip-path:url(#SVGID_00000066488173572978171880000005504411782889960349_);fill:none;stroke:#231D91;stroke-miterlimit:10;" points="
					150,75.5 102.7,131.4 144.6,180 				"/>
			</g>
			<g>
				<defs>
					<path id="SVGID_00000021822018093319292440000004147962108819627684_" d="M153.3,128.7h40l37.8,41.1l-37.8,41.1h-40l38-41.1
						L153.3,128.7z"/>
				</defs>
				<clipPath id="SVGID_00000005240468387540491390000016377857709248206235_">
					<use xlink:href="#SVGID_00000021822018093319292440000004147962108819627684_"  style="overflow:visible;"/>
				</clipPath>

				<polyline style="clip-path:url(#SVGID_00000005240468387540491390000016377857709248206235_);fill:none;stroke:#231D91;stroke-miterlimit:10;" points="
					165,225.6 212.2,169.8 170.4,121.2 				"/>
			</g>
		</g>
	</g>
</g>
</svg>
